<svg width="18" height="7" viewBox="0 0 18 7" fill="none" xmlns="http://www.w3.org/2000/svg">
<g clip-path="url(#clip0_72036_1753)">
<path d="M16.5685 6.66707L1.43151 6.66707C1.18446 6.66707 0.947523 6.56822 0.772832 6.39226C0.598141 6.2163 0.5 5.97764 0.5 5.7288C0.5 5.47995 0.598141 5.2413 0.772832 5.06534C0.947523 4.88938 1.18446 4.79053 1.43151 4.79053L16.5685 4.79053C16.8155 4.79053 17.0525 4.88938 17.2272 5.06534C17.4019 5.2413 17.5 5.47995 17.5 5.7288C17.5 5.97764 17.4019 6.2163 17.2272 6.39226C17.0525 6.56822 16.8155 6.66707 16.5685 6.66707Z" fill="#FFA800"/>
<path d="M16.5685 2.21004L1.43151 2.21004C1.18446 2.21004 0.947523 2.11119 0.772832 1.93523C0.598141 1.75927 0.5 1.52061 0.5 1.27177C0.5 1.02292 0.598141 0.78427 0.772832 0.608309C0.947523 0.432349 1.18446 0.333496 1.43151 0.333496L16.5685 0.333496C16.8155 0.333496 17.0525 0.432349 17.2272 0.608309C17.4019 0.78427 17.5 1.02292 17.5 1.27177C17.5 1.52061 17.4019 1.75927 17.2272 1.93523C17.0525 2.11119 16.8155 2.21004 16.5685 2.21004Z" fill="#FFA800"/>
</g>
<defs>
<clipPath id="clip0_72036_1753">
<rect width="17" height="6.33333" fill="white" transform="translate(0.5 0.333496)"/>
</clipPath>
</defs>
</svg>
